# xmcd
#
# Track frame offsets: 
#        150
#        12340
#        24276
#        42203
#        52548
#        65570
#        79133
#        91953
#        101825
#        111666
#        122066
#        134029
#        146998
#        157811
#        168067
#        177544
#        190714
#        201619
#        213161
#        225433
#
# Disc length: 3166 seconds
#
# Revision: 0
# Processed by: cddbd v1.5.2PL0 Copyright (c) Steve Scherf et al.
# Submitted via: ExactAudioCopyFreeDBPlugin 1.0
#
DISCID=150c5c14
DTITLE=Various Artist - Northern Soul - The Ultimate Collection CD2
DYEAR=1900
DGENRE=Northern Soul
TTITLE0=The Flirtations - Nothing But A Heartache
TTITLE1=Gene Latter - Sign On The Dotted Line
TTITLE2=Mr Floods Party - Compared To What
TTITLE3=Edwin Starr - Stop Her On Sight (SOS)
TTITLE4=Fontella Bass - Rescue Me
TTITLE5=Billy Stewart - Secret Love
TTITLE6=The Four Tops - Sweet Was The Love
TTITLE7=Johnny Copeland - No Puppy Love
TTITLE8=Jason Knight - Our Love Is Getting Stronger
TTITLE9=Nicky Wilson - Stone Soul Loving
TTITLE10=The Ad Libs - Nothing Worse Than Being Alone
TTITLE11=The Velvelettes - A Bird In The Hand (Is Worth Two In The Bus
TTITLE11=h)
TTITLE12=The Ringleaders - Baby, What Has Happened To Our Love
TTITLE13=Willie and The Mighty Magnificents - Check It Baby
TTITLE14=Eddie Holman - I Surrender
TTITLE15=Clyde McPhatter - Baby You Got It
TTITLE16=Jimmy Ruffin - I Gotta Let You Go
TTITLE17=Frances Nero - Keep On Loving Me
TTITLE18=Lorraine Chandler - You Only Live Twice
TTITLE19=Ted Ford - You're Gonna Need Me
EXTD=
EXTT0=
EXTT1=
EXTT2=
EXTT3=
EXTT4=
EXTT5=
EXTT6=
EXTT7=
EXTT8=
EXTT9=
EXTT10=
EXTT11=
EXTT12=
EXTT13=
EXTT14=
EXTT15=
EXTT16=
EXTT17=
EXTT18=
EXTT19=
PLAYORDER=
